<svg width="65" height="105" viewBox="0 0 65 105" fill="none" xmlns="http://www.w3.org/2000/svg">
    <g class="mouse">
        <path 
            d="M0 22.0891C0 9.88964 9.88963 0 22.0891 0H42.9109C55.1104 0 65 9.88963 65 22.0891V74.7475C65 91.4555 51.4555 105 34.7475 105H30.2525C13.5445 105 0 91.4555 0 74.7475V22.0891ZM23 42H5V72.5C5 87.6878 17.3122 100 32.5 100C47.6878 100 60 87.6878 60 72.5V42H42V45.5C42 50.7467 37.7467 55 32.5 55C27.2533 55 23 50.7467 23 45.5V42ZM32.5 17C28.9101 17 26 19.827 26 23.3143V44.6857C26 48.173 28.9101 51 32.5 51C36.0899 51 39 48.173 39 44.6857V23.3143C39 19.827 36.0899 17 32.5 17ZM42.4074 38H60V24.4118C60 13.6909 51.709 5 41.4815 5H35V13.8496C39.1981 14.5476 42.4074 18.3589 42.4074 22.9559V38ZM5 38H22.5926V22.9559C22.5926 18.3589 25.8019 14.5476 30 13.8496V5H23.5185C13.291 5 5 13.6909 5 24.4118V38Z" 
            class="mouse-outline" 
            fill-rule="evenodd" 
            clip-rule="evenodd" 
            fill="black"/>
        <path 
            d="M23 42H5V72.5C5 87.6878 17.3122 100 32.5 100C47.6878 100 60 87.6878 60 72.5V42H42V45.5C42 50.7467 37.7467 55 32.5 55C27.2533 55 23 50.7467 23 45.5V42Z" 
            class="mouse-body" 
            fill="grey"/>
        <path 
            d="M26 23.3143C26 19.827 28.9101 17 32.5 17C36.0899 17 39 19.827 39 23.3143V44.6857C39 48.173 36.0899 51 32.5 51C28.9101 51 26 48.173 26 44.6857V23.3143Z" 
            class="mouse-wheel" 
            fill="green"/>
        <path
            d="M42.4074 38H60V24.4118C60 13.6909 51.709 5 41.4815 5H35V13.8496C39.1981 14.5476 42.4074 18.3589 42.4074 22.9559V38Z" 
            class="mouse-right"
            fill="blue" />
        <path 
            d="M22.5926 38H5V24.4118C5 13.6909 13.291 5 23.5185 5H30V13.8496C25.8019 14.5476 22.5926 18.3589 22.5926 22.9559V38Z" 
            class="mouse-left" 
            fill="red"/>
    </g>
</svg>
