
<svg width="1344" height="1085" viewBox="0 0 1344 1085" fill="none" xmlns="http://www.w3.org/2000/svg">
<path d="M698.731 971.683L736.601 942.724L698.731 900.399C691.137 892.811 684.92 884.36 686.108 846.936C687.296 809.512 711.355 759.564 723.235 739.268L678.683 703.626V636.054L917.781 494.971V432.598L983.125 399.926L1077.43 461.557L1039.56 673.181L1010.6 695.458L962.334 654.618L940.8 668.726C963.324 688.032 1011.04 729.169 1021.74 739.268C1035.1 751.891 1017.8 808.324 1010.6 821.69C998.124 844.857 988.075 860.797 983.125 868.47L1001.69 884.806L995.748 926.388C992.778 950.149 983.125 967.97 969.017 985.049C922.56 1041.29 891.792 1051.88 879.912 1040C872.189 1032.27 863.823 1023.41 860.605 1019.95L780.411 1084.55L698.731 990.247V971.683Z" fill="#787878"/>
<path d="M683.881 193.5L500.473 274.437L519.036 442.251L752.194 619.718L772.986 638.282L822.736 605.61L825.706 465.27L795.262 442.251L822.736 427.4V373.195L994.263 500.169L1158.36 397.699L1165.05 363.542L1188.81 378.392L1225.94 354.631L1237.07 303.396L1274.2 324.187L1307.62 303.396L1344 169.738L1263.06 128.899C1269.25 108.602 1281.33 64.2975 1280.14 49.4466C1278.66 30.8831 1233.36 11.577 1217.77 7.12177C1202.17 2.66652 1151.68 -8.4716 1104.16 11.577C1066.14 27.6159 1033.87 40.5361 1022.48 44.9914L1019.51 93.9991L972.729 68.0102L934.117 84.3461L925.949 216.518L1045.5 289.287L1015.05 306.366L774.471 153.402L730.661 173.451L735.116 290.773L721.008 293.743L717.295 216.518L683.881 193.5Z" fill="#EAEAEA"/>
<path d="M734.373 509.822L746.997 806.839L602.944 904.112C570.024 864.509 498.542 776.395 475.969 740.753C453.396 705.111 448.742 667.488 449.238 653.133L461.861 645.707L440.327 615.263C435.377 617.986 420.724 625.956 401.715 636.054C377.954 648.677 354.935 613.778 332.659 587.789C317.562 570.176 273.75 502.892 255.434 469.725L240.583 477.15L213.852 448.191L158.161 341.265L132.915 349.433L113.609 327.157V259.586L0 44.2488L139.598 1.18143L162.617 21.23L219.05 127.413L266.572 110.335L297.017 137.066L271.028 234.339L356.42 200.925C363.103 199.192 386.716 205.677 427.704 245.478C468.692 285.278 513.839 371.71 528.689 413.292C544.035 399.679 574.43 372.898 617.794 410.322C661.159 447.746 717.295 495.219 734.373 509.822Z" fill="#252525"/>
</svg>
