{
    "asset" : {
        "generator" : "Khronos glTF Blender I/O v1.0.5",
        "version" : "2.0"
    },
    "scene" : 0,
    "scenes" : [
        {
            "name" : "Scene",
            "nodes" : [
                0,
                1,
                2,
                3
            ]
        }
    ],
    "nodes" : [
        {
            "name" : "Camera",
            "rotation" : [
                0.36759746074676514,
                0.36155804991722107,
                -0.15781572461128235,
                0.8421651124954224
            ],
            "translation" : [
                3.410930633544922,
                3.717780590057373,
                2.0135416984558105
            ]
        },
        {
            "mesh" : 0,
            "name" : "flip",
            "rotation" : [
                0,
                0.7071067690849304,
                0,
                0.7071068286895752
            ],
            "scale" : [
                1.9851994514465332,
                1.9851994514465332,
                1.9851994514465332
            ],
            "translation" : [
                0.21337854862213135,
                -1.037158489227295,
                -1.1138523817062378
            ]
        },
        {
            "mesh" : 1,
            "name" : "top",
            "rotation" : [
                0,
                0,
                -0.7071067690849304,
                0.7071068286895752
            ],
            "scale" : [
                1.9851994514465332,
                1.9851994514465332,
                1.9851994514465332
            ],
            "translation" : [
                -0.06673458218574524,
                -1.398438572883606,
                -1.3143889904022217
            ]
        },
        {
            "mesh" : 2,
            "name" : "box",
            "rotation" : [
                0,
                -0.7071067690849304,
                -0.7071068286895752,
                2.2476454475395258e-08
            ],
            "scale" : [
                1.9851994514465332,
                1.9851994514465332,
                1.9851994514465332
            ],
            "translation" : [
                0.3697456121444702,
                -0.744138777256012,
                -0.8973779082298279
            ]
        }
    ],
    "materials" : [
        {
            "doubleSided" : true,
            "emissiveFactor" : [
                0.10653519630432129,
                0.10653519630432129,
                0.10653519630432129
            ],
            "name" : "Material.002",
            "pbrMetallicRoughness" : {}
        },
        {
            "doubleSided" : true,
            "emissiveFactor" : [
                0.008075856603682041,
                0.008075856603682041,
                0.008075856603682041
            ],
            "name" : "Material.004",
            "pbrMetallicRoughness" : {}
        },
        {
            "doubleSided" : true,
            "name" : "Material.005",
            "pbrMetallicRoughness" : {
                "baseColorFactor" : [
                    1,
                    1,
                    1,
                    1
                ],
                "metallicFactor" : 0,
                "roughnessFactor" : 0.41954025626182556
            }
        }
    ],
    "meshes" : [
        {
            "name" : "Text",
            "primitives" : [
                {
                    "attributes" : {
                        "POSITION" : 0,
                        "NORMAL" : 1
                    },
                    "indices" : 2,
                    "material" : 0
                }
            ]
        },
        {
            "name" : "Text.001",
            "primitives" : [
                {
                    "attributes" : {
                        "POSITION" : 3,
                        "NORMAL" : 4
                    },
                    "indices" : 5,
                    "material" : 1
                }
            ]
        },
        {
            "name" : "Text.002",
            "primitives" : [
                {
                    "attributes" : {
                        "POSITION" : 6,
                        "NORMAL" : 7
                    },
                    "indices" : 8,
                    "material" : 2
                }
            ]
        }
    ],
    "accessors" : [
        {
            "bufferView" : 0,
            "componentType" : 5126,
            "count" : 3524,
            "max" : [
                1.711003065109253,
                0.1459999978542328,
                0.002000001259148121
            ],
            "min" : [
                0.07400000095367432,
                -0.1459999978542328,
                -0.6840000152587891
            ],
            "type" : "VEC3"
        },
        {
            "bufferView" : 1,
            "componentType" : 5126,
            "count" : 3524,
            "type" : "VEC3"
        },
        {
            "bufferView" : 2,
            "componentType" : 5123,
            "count" : 5436,
            "type" : "SCALAR"
        },
        {
            "bufferView" : 3,
            "componentType" : 5126,
            "count" : 742,
            "max" : [
                1.7970000505447388,
                0.14399999380111694,
                0.009000000543892384
            ],
            "min" : [
                0.017000000923871994,
                -0.14399999380111694,
                -0.6910000443458557
            ],
            "type" : "VEC3"
        },
        {
            "bufferView" : 4,
            "componentType" : 5126,
            "count" : 742,
            "type" : "VEC3"
        },
        {
            "bufferView" : 5,
            "componentType" : 5123,
            "count" : 1908,
            "type" : "SCALAR"
        },
        {
            "bufferView" : 6,
            "componentType" : 5126,
            "count" : 1409,
            "max" : [
                2.052000045776367,
                0.14399999380111694,
                0.009000000543892384
            ],
            "min" : [
                0.07500000298023224,
                -0.14399999380111694,
                -0.6910000443458557
            ],
            "type" : "VEC3"
        },
        {
            "bufferView" : 7,
            "componentType" : 5126,
            "count" : 1409,
            "type" : "VEC3"
        },
        {
            "bufferView" : 8,
            "componentType" : 5123,
            "count" : 2568,
            "type" : "SCALAR"
        }
    ],
    "bufferViews" : [
        {
            "buffer" : 0,
            "byteLength" : 42288,
            "byteOffset" : 0
        },
        {
            "buffer" : 0,
            "byteLength" : 42288,
            "byteOffset" : 42288
        },
        {
            "buffer" : 0,
            "byteLength" : 10872,
            "byteOffset" : 84576
        },
        {
            "buffer" : 0,
            "byteLength" : 8904,
            "byteOffset" : 95448
        },
        {
            "buffer" : 0,
            "byteLength" : 8904,
            "byteOffset" : 104352
        },
        {
            "buffer" : 0,
            "byteLength" : 3816,
            "byteOffset" : 113256
        },
        {
            "buffer" : 0,
            "byteLength" : 16908,
            "byteOffset" : 117072
        },
        {
            "buffer" : 0,
            "byteLength" : 16908,
            "byteOffset" : 133980
        },
        {
            "buffer" : 0,
            "byteLength" : 5136,
            "byteOffset" : 150888
        }
    ],
    "buffers" : [
        {
            "byteLength" : 156024,
            "uri" : "data:application/octet-stream;base64,"
        }
    ]
}
